<svg width="54" height="33" viewBox="0 0 54 33" fill="none" xmlns="http://www.w3.org/2000/svg">
<path d="M0.370995 4.98541C0.385446 2.49505 2.39405 0.487666 4.85785 0.502277L35.3522 0.684102L35.1684 32.2276L4.67401 32.0457C2.21021 32.0311 0.224886 30.0002 0.239336 27.509C0.249773 25.6762 1.35683 24.0308 3.04031 23.3506C5.81318 22.2296 7.77924 19.4973 7.7977 16.2919C7.81617 13.0864 5.88222 10.3306 3.12299 9.17713C1.44755 8.47662 0.360559 6.81908 0.370995 4.98541ZM37.6233 32.2422L48.6185 32.3079C51.0751 32.3225 53.078 30.3208 53.0925 27.837C53.1029 26.0008 52.0095 24.3409 50.3268 23.6485C47.5459 22.5048 45.5935 19.7376 45.612 16.5175C45.6305 13.2974 47.6158 10.5538 50.4095 9.44338C52.0994 8.77127 53.2129 7.1251 53.2234 5.28818C53.2378 2.80432 51.2581 0.779073 48.8015 0.764462L37.8064 0.698713L37.6225 32.2422H37.6233Z" fill="url(#paint0_linear_4006_1227)"/>
<defs>
<linearGradient id="paint0_linear_4006_1227" x1="26.7313" y1="0.502197" x2="26.7313" y2="32.308" gradientUnits="userSpaceOnUse">
<stop stop-color="#2D6ED0"/>
<stop offset="1" stop-color="#2BC6CC"/>
</linearGradient>
</defs>
</svg>
